# xmcd
#
# Track frame offsets: 
#        150
#        15033
#        31561
#        48725
#        66205
#        81098
#        96457
#        108663
#        133789
#        153897
#        181408
#        198026
#        220337
#        233323
#        250546
#
# Disc length: 3643 seconds
#
# Revision: 0
# Processed by: cddbd v1.5.2PL0 Copyright (c) Steve Scherf et al.
# Submitted via: ExactAudioCopy v1.0b2
#
DISCID=b50e390f
DTITLE=Enzo Avitabile - Pelle differente
DYEAR=2018
DGENRE=Blues
TTITLE0=Il coraggio di ogni giorno feat. Peppe Servillo
TTITLE1=Respirando navigando
TTITLE2=Abball' cu me feat Khaled
TTITLE3=Salvamm  'o munno feat Manu Dibango
TTITLE4=Anola Tranola
TTITLE5=Don Salvato
TTITLE6=Malincunia
TTITLE7=Tutt' egual song' 'e criature (Live Version)   feat Eliades Oc
TTITLE7=hoa
TTITLE8=Canta Palestina (Live Version) feat Amal Murkus
TTITLE9=Nuie e ll' acqua (Live Version) feat Idir
TTITLE10=Mane e mane feat Daby Tour￩
TTITLE11=Soul express  feat Toumani Diabat￩ e Mauro Pagani
TTITLE12=No è No  feat Franco Battiato
TTITLE13=Gerardo nuvola 'e povere feat Francesco Guccini
TTITLE14=E 'a Maronn' accumparett' in Africa feat David Crosby
EXTD=
EXTT0=
EXTT1=
EXTT2=
EXTT3=
EXTT4=
EXTT5=
EXTT6=
EXTT7=
EXTT8=
EXTT9=
EXTT10=
EXTT11=
EXTT12=
EXTT13=
EXTT14=
PLAYORDER=
